<svg viewBox="0 0 200 200" xmlns="http://www.w3.org/2000/svg">
  <path fill="#4C51BF" d="M35.4,-67.1C43.9,-56.3,47.6,-43,54.6,-31.4C61.5,-19.8,71.7,-9.9,74.4,1.6C77.2,13.1,72.5,26.1,66.3,39C60.1,51.9,52.3,64.5,41,67C29.7,69.5,14.9,61.8,-0.2,62.1C-15.3,62.5,-30.5,70.9,-40.2,67.5C-49.9,64.1,-54,48.8,-60.6,35.6C-67.2,22.3,-76.3,11.2,-73.9,1.4C-71.5,-8.4,-57.6,-16.8,-48.3,-25.4C-39.1,-34,-34.4,-42.8,-27.1,-54.3C-19.9,-65.9,-9.9,-80.1,1.7,-83.1C13.4,-86.1,26.8,-77.9,35.4,-67.1Z" transform="translate(100 100)" />
</svg>