<svg data-v-fde0c5aa="" xmlns="http://www.w3.org/2000/svg" viewBox="0 0 300 300" class="iconLeftSlogan"><!----><defs data-v-fde0c5aa=""><!----></defs><rect data-v-fde0c5aa="" fill="#341952" x="0" y="0" width="300px" height="300px" class="logo-background-square"></rect><defs data-v-fde0c5aa=""><!----></defs><g data-v-fde0c5aa="" id="24d0a47a-a89a-4013-9c72-cf129d8ae014" fill="#FFFFFF" transform="matrix(3.313074988994074,0,0,3.313074988994074,132.01591279600757,110.44737005550667)"><path d="M1.29 14.08L2.94 14.08L2.94 11.13L5.26 11.13C5.42 11.13 5.57 11.13 5.71 11.12L7.50 14.08L9.38 14.08L7.18 10.81C8.48 10.30 9.21 9.20 9.21 7.63C9.21 5.50 7.77 4.28 5.26 4.28L1.29 4.28ZM2.94 9.65L2.94 5.77L5.26 5.77C6.78 5.77 7.64 6.38 7.64 7.67C7.64 9.00 6.78 9.65 5.26 9.65ZM10.61 10.37C10.61 12.61 12.12 14.14 14.42 14.14C15.71 14.14 16.77 13.68 17.50 12.88L16.65 11.97C16.10 12.53 15.36 12.84 14.55 12.84C13.37 12.84 12.49 12.12 12.24 10.98L17.86 10.98C18.06 8.29 17.00 6.58 14.38 6.58C12.17 6.59 10.61 8.12 10.61 10.37ZM12.21 9.80C12.39 8.61 13.22 7.87 14.39 7.87C15.61 7.87 16.41 8.60 16.46 9.80ZM19.61 14.08L21.22 14.08L21.22 3.70L19.61 3.70ZM23.44 11.27C23.44 13.05 24.46 14.14 26.17 14.14C27.38 14.13 28.32 13.66 28.83 12.63L28.83 14.08L30.44 14.08L30.44 6.64L28.83 6.64L28.83 10.30C28.83 11.61 28.07 12.60 26.78 12.63C25.70 12.63 25.05 11.94 25.05 10.82L25.05 6.64L23.44 6.64ZM32.26 14.08L38.63 14.10L38.63 12.78L34.24 12.77L38.50 7.73L38.50 6.65L32.38 6.64L32.38 7.95L36.51 7.95L32.26 12.99Z"></path></g><defs data-v-fde0c5aa=""><!----></defs><g data-v-fde0c5aa="" id="58202758-6148-45e4-97f2-4ecc41b65d11" stroke="none" fill="#E96D77" transform="matrix(0.9443366842892216,0,0,0.9443366842892216,34.665598614544095,95.26199405887397)"><path d="M17.961 31.643L8.251 57.29c-3.785-5.55-2.469-13.798-1.976-15.748l11.686-9.899zm6.748 33.895c-1.811-.449-3.292-1.05-4.772-1.499-4.115-1.65-7.077-3.3-8.724-4.05L34.09 44.542l12.509 24.896c-6.255-.3-12.509-1.199-18.927-2.999l-2.963-.901zM12.53 55.34l8.064-21.297c1.975 2.85 6.418 5.249 12.837 7.199L12.53 55.34zm14.319 13.948a85.796 85.796 0 0 0 23.535 3.3c9.71 0 18.927-1.8 27.32-5.1L51.536 95.384 18.784 66.738c1.481.6 3.127 1.2 4.772 1.649l3.293.901zm19.914-28.496c-7.241-.9-20.243-3.6-23.699-8.699-.658-1.05-.987-2.1-.658-3.3.987-1.799 3.456-3.449 6.912-4.949 5.431-2.1 12.508-3.299 20.079-3.299 7.57 0 14.812 1.2 20.078 3.299 3.292 1.35 5.597 2.85 6.748 4.5.494.9.987 2.7.165 4.5-1.152 1.799-3.456 3.299-6.913 4.649-5.266 2.1-12.508 3.3-20.078 3.3h-2.634zm1.81 49.043l2.304-2.1-14.318-12.898-2.304 2.1 14.318 12.898zM37.217 42.142c6.419 1.5 12.015 1.95 12.344 1.95h.165c3.785-.15 7.241-.45 10.368-.75L49.231 67.488 36.395 41.842l.822.3zm25.511 3.15L80.997 62.54c-8.394 3.899-17.117 6.299-26.169 6.898-.987 0-1.975.15-2.962.15l10.862-24.296zm4.279 28.646L52.853 86.686l2.304 2.1 14.154-12.748-2.304-2.1zm-2.469-31.346c6.254-1.2 10.697-3.3 13.166-5.999l3.292 21.597-16.458-15.598zm22.054-7.349l-6.748-2.7c.164-.6.164-1.35.164-1.95l6.584 4.65zm6.089 4.949c2.14 5.399 1.317 10.349-2.304 15.148-1.975 2.399-4.114 4.05-5.596 5.1l-3.785-24.147 11.355 4.5.33-.601z"></path></g><defs data-v-fde0c5aa=""><!----></defs><g data-v-fde0c5aa="" id="8ed235bd-b373-4e71-bac4-efaf553c5bd6" fill="#FFFFFF" transform="matrix(0.28960417797562066,0,0,0.28960417797562066,135.99438314941477,165.64930064604786)"><path d="M1.02 6.97L1.02 5.88L4.24 5.88L4.24 5.88Q6.06 5.88 6.90 6.75L6.90 6.75L6.90 6.75Q7.74 7.62 7.74 9.52L7.74 9.52L7.74 12.04L7.74 12.04Q7.74 13.94 6.90 14.81L6.90 14.81L6.90 14.81Q6.06 15.68 4.24 15.68L4.24 15.68L1.02 15.68L1.02 14.57L1.86 14.57L1.86 6.97L1.02 6.97ZM3.04 14.59L4.07 14.59L4.07 14.59Q4.72 14.59 5.19 14.46L5.19 14.46L5.19 14.46Q5.66 14.34 5.96 14.04L5.96 14.04L5.96 14.04Q6.27 13.73 6.42 13.23L6.42 13.23L6.42 13.23Q6.57 12.73 6.57 11.96L6.57 11.96L6.57 9.60L6.57 9.60Q6.57 8.83 6.42 8.33L6.42 8.33L6.42 8.33Q6.27 7.83 5.96 7.53L5.96 7.53L5.96 7.53Q5.66 7.22 5.19 7.10L5.19 7.10L5.19 7.10Q4.72 6.97 4.07 6.97L4.07 6.97L3.04 6.97L3.04 14.59ZM16.74 6.97L16.74 5.88L22.96 5.88L22.96 6.97L20.44 6.97L20.44 14.59L22.96 14.59L22.96 15.68L16.74 15.68L16.74 14.59L19.26 14.59L19.26 6.97L16.74 6.97ZM38.23 15.68L37.52 13.24L33.32 13.24L32.61 15.68L31.35 15.68L34.31 5.88L36.53 5.88L39.49 15.68L38.23 15.68ZM35.50 6.38L35.34 6.38L33.64 12.15L37.20 12.15L35.50 6.38ZM47.35 15.68L47.35 5.88L49.59 5.88L50.90 15.18L51.07 15.18L52.39 5.88L54.63 5.88L54.63 15.68L53.54 15.68L53.54 6.38L53.37 6.38L52.05 15.68L49.92 15.68L48.61 6.38L48.44 6.38L48.44 15.68L47.35 15.68ZM69.37 15.68L68.66 13.24L64.46 13.24L63.74 15.68L62.48 15.68L65.45 5.88L67.66 5.88L70.63 15.68L69.37 15.68ZM66.64 6.38L66.47 6.38L64.78 12.15L68.33 12.15L66.64 6.38ZM81.21 5.88L84.04 15.18L84.21 15.18L84.21 5.88L85.39 5.88L85.39 15.68L83.03 15.68L80.21 6.38L80.04 6.38L80.04 15.68L78.86 15.68L78.86 5.88L81.21 5.88ZM94.25 6.97L94.25 5.88L101.14 5.88L101.14 6.97L98.28 6.97L98.28 15.68L97.10 15.68L97.10 6.97L94.25 6.97ZM110.29 15.68L110.29 5.88L116.23 5.88L116.23 6.97L111.47 6.97L111.47 10.22L116.14 10.22L116.14 11.31L111.47 11.31L111.47 14.59L116.31 14.59L116.31 15.68L110.29 15.68ZM131.14 9.21L131.14 8.71L131.14 8.71Q131.14 8.23 130.95 7.87L130.95 7.87L130.95 7.87Q130.76 7.50 130.44 7.27L130.44 7.27L130.44 7.27Q130.12 7.03 129.70 6.90L129.70 6.90L129.70 6.90Q129.28 6.78 128.81 6.78L128.81 6.78L128.81 6.78Q128.41 6.78 128.04 6.88L128.04 6.88L128.04 6.88Q127.68 6.99 127.39 7.18L127.39 7.18L127.39 7.18Q127.11 7.38 126.94 7.66L126.94 7.66L126.94 7.66Q126.77 7.95 126.77 8.33L126.77 8.33L126.77 8.41L126.77 8.41Q126.77 8.82 126.94 9.11L126.94 9.11L126.94 9.11Q127.11 9.39 127.44 9.60L127.44 9.60L127.44 9.60Q127.76 9.80 128.25 9.93L128.25 9.93L128.25 9.93Q128.74 10.07 129.40 10.16L129.40 10.16L129.40 10.16Q130.94 10.40 131.67 11.07L131.67 11.07L131.67 11.07Q132.40 11.73 132.40 12.85L132.40 12.85L132.40 13.02L132.40 13.02Q132.40 13.65 132.18 14.17L132.18 14.17L132.18 14.17Q131.96 14.70 131.54 15.08L131.54 15.08L131.54 15.08Q131.11 15.46 130.48 15.67L130.48 15.67L130.48 15.67Q129.85 15.88 129.02 15.88L129.02 15.88L129.02 15.88Q128.09 15.88 127.36 15.60L127.36 15.60L127.36 15.60Q126.64 15.33 126.16 14.85L126.16 14.85L126.16 14.85Q125.68 14.36 125.43 13.71L125.43 13.71L125.43 13.71Q125.17 13.06 125.17 12.29L125.17 12.29L125.17 11.87L126.35 11.87L126.35 12.21L126.35 12.21Q126.35 13.50 127.06 14.14L127.06 14.14L127.06 14.14Q127.76 14.78 129.02 14.78L129.02 14.78L129.02 14.78Q130.12 14.78 130.67 14.30L130.67 14.30L130.67 14.30Q131.22 13.82 131.22 13.02L131.22 13.02L131.22 12.94L131.22 12.94Q131.22 12.17 130.66 11.76L130.66 11.76L130.66 11.76Q130.09 11.35 128.81 11.17L128.81 11.17L128.81 11.17Q128.07 11.07 127.48 10.87L127.48 10.87L127.48 10.87Q126.88 10.67 126.46 10.34L126.46 10.34L126.46 10.34Q126.04 10.01 125.82 9.55L125.82 9.55L125.82 9.55Q125.59 9.09 125.59 8.46L125.59 8.46L125.59 8.29L125.59 8.29Q125.59 7.71 125.83 7.24L125.83 7.24L125.83 7.24Q126.07 6.76 126.50 6.41L126.50 6.41L126.50 6.41Q126.92 6.06 127.52 5.87L127.52 5.87L127.52 5.87Q128.11 5.68 128.83 5.68L128.83 5.68L128.83 5.68Q129.65 5.68 130.31 5.92L130.31 5.92L130.31 5.92Q130.96 6.16 131.40 6.56L131.40 6.56L131.40 6.56Q131.85 6.96 132.08 7.50L132.08 7.50L132.08 7.50Q132.31 8.04 132.31 8.62L132.31 8.62L132.31 9.21L131.14 9.21ZM157.00 15.68L157.00 5.88L162.93 5.88L162.93 6.97L158.17 6.97L158.17 10.22L162.85 10.22L162.85 11.31L158.17 11.31L158.17 14.59L163.02 14.59L163.02 15.68L157.00 15.68ZM191.51 11.65L189.18 11.65L189.18 15.68L188.01 15.68L188.01 5.88L191.51 5.88L191.51 5.88Q192.26 5.88 192.82 6.10L192.82 6.10L192.82 6.10Q193.38 6.31 193.75 6.68L193.75 6.68L193.75 6.68Q194.12 7.04 194.31 7.53L194.31 7.53L194.31 7.53Q194.50 8.01 194.50 8.54L194.50 8.54L194.50 8.96L194.50 8.96Q194.50 9.49 194.31 9.98L194.31 9.98L194.31 9.98Q194.12 10.47 193.75 10.84L193.75 10.84L193.75 10.84Q193.37 11.21 192.81 11.43L192.81 11.43L192.81 11.43Q192.25 11.65 191.51 11.65L191.51 11.65ZM189.18 6.97L189.18 10.56L191.37 10.56L191.37 10.56Q193.33 10.56 193.33 8.88L193.33 8.88L193.33 8.62L193.33 8.62Q193.33 7.88 192.84 7.43L192.84 7.43L192.84 7.43Q192.36 6.97 191.37 6.97L191.37 6.97L189.18 6.97ZM203.70 15.68L203.70 5.88L209.64 5.88L209.64 6.97L204.88 6.97L204.88 10.22L209.55 10.22L209.55 11.31L204.88 11.31L204.88 14.59L209.72 14.59L209.72 15.68L203.70 15.68ZM218.97 6.97L218.97 5.88L222.19 5.88L222.19 5.88Q224.01 5.88 224.85 6.75L224.85 6.75L224.85 6.75Q225.69 7.62 225.69 9.52L225.69 9.52L225.69 12.04L225.69 12.04Q225.69 13.94 224.85 14.81L224.85 14.81L224.85 14.81Q224.01 15.68 222.19 15.68L222.19 15.68L218.97 15.68L218.97 14.57L219.81 14.57L219.81 6.97L218.97 6.97ZM220.99 14.59L222.03 14.59L222.03 14.59Q222.67 14.59 223.14 14.46L223.14 14.46L223.14 14.46Q223.61 14.34 223.92 14.04L223.92 14.04L223.92 14.04Q224.22 13.73 224.37 13.23L224.37 13.23L224.37 13.23Q224.52 12.73 224.52 11.96L224.52 11.96L224.52 9.60L224.52 9.60Q224.52 8.83 224.37 8.33L224.37 8.33L224.37 8.33Q224.22 7.83 223.92 7.53L223.92 7.53L223.92 7.53Q223.61 7.22 223.14 7.10L223.14 7.10L223.14 7.10Q222.67 6.97 222.03 6.97L222.03 6.97L220.99 6.97L220.99 14.59ZM240.87 12.15L240.87 15.68L239.69 15.68L239.69 12.40L239.69 12.40Q239.69 12.04 239.53 11.84L239.53 11.84L239.53 11.84Q239.36 11.65 238.94 11.65L238.94 11.65L235.89 11.65L235.89 15.68L234.71 15.68L234.71 5.88L238.21 5.88L238.21 5.88Q238.97 5.88 239.53 6.10L239.53 6.10L239.53 6.10Q240.09 6.31 240.46 6.68L240.46 6.68L240.46 6.68Q240.83 7.04 241.02 7.53L241.02 7.53L241.02 7.53Q241.21 8.01 241.21 8.54L241.21 8.54L241.21 8.96L241.21 8.96Q241.21 9.51 240.91 10.05L240.91 10.05L240.91 10.05Q240.60 10.60 239.97 10.89L239.97 10.89L239.97 11.06L239.97 11.06Q240.39 11.13 240.63 11.40L240.63 11.40L240.63 11.40Q240.87 11.66 240.87 12.15L240.87 12.15ZM235.89 6.97L235.89 10.56L238.07 10.56L238.07 10.56Q239.06 10.56 239.55 10.13L239.55 10.13L239.55 10.13Q240.03 9.70 240.03 8.88L240.03 8.88L240.03 8.62L240.03 8.62Q240.03 7.88 239.55 7.43L239.55 7.43L239.55 7.43Q239.06 6.97 238.07 6.97L238.07 6.97L235.89 6.97ZM256.19 15.68L255.47 13.24L251.27 13.24L250.56 15.68L249.30 15.68L252.27 5.88L254.48 5.88L257.45 15.68L256.19 15.68ZM253.46 6.38L253.29 6.38L251.59 12.15L255.15 12.15L253.46 6.38ZM271.25 9.21L271.25 8.71L271.25 8.71Q271.25 8.23 271.06 7.87L271.06 7.87L271.06 7.87Q270.87 7.50 270.55 7.27L270.55 7.27L270.55 7.27Q270.23 7.03 269.81 6.90L269.81 6.90L269.81 6.90Q269.39 6.78 268.93 6.78L268.93 6.78L268.93 6.78Q268.52 6.78 268.16 6.88L268.16 6.88L268.16 6.88Q267.79 6.99 267.51 7.18L267.51 7.18L267.51 7.18Q267.22 7.38 267.05 7.66L267.05 7.66L267.05 7.66Q266.88 7.95 266.88 8.33L266.88 8.33L266.88 8.41L266.88 8.41Q266.88 8.82 267.05 9.11L267.05 9.11L267.05 9.11Q267.22 9.39 267.55 9.60L267.55 9.60L267.55 9.60Q267.88 9.80 268.37 9.93L268.37 9.93L268.37 9.93Q268.86 10.07 269.51 10.16L269.51 10.16L269.51 10.16Q271.05 10.40 271.78 11.07L271.78 11.07L271.78 11.07Q272.51 11.73 272.51 12.85L272.51 12.85L272.51 13.02L272.51 13.02Q272.51 13.65 272.29 14.17L272.29 14.17L272.29 14.17Q272.08 14.70 271.65 15.08L271.65 15.08L271.65 15.08Q271.22 15.46 270.59 15.67L270.59 15.67L270.59 15.67Q269.96 15.88 269.14 15.88L269.14 15.88L269.14 15.88Q268.20 15.88 267.48 15.60L267.48 15.60L267.48 15.60Q266.76 15.33 266.27 14.85L266.27 14.85L266.27 14.85Q265.79 14.36 265.54 13.71L265.54 13.71L265.54 13.71Q265.29 13.06 265.29 12.29L265.29 12.29L265.29 11.87L266.46 11.87L266.46 12.21L266.46 12.21Q266.46 13.50 267.17 14.14L267.17 14.14L267.17 14.14Q267.88 14.78 269.14 14.78L269.14 14.78L269.14 14.78Q270.23 14.78 270.78 14.30L270.78 14.30L270.78 14.30Q271.33 13.82 271.33 13.02L271.33 13.02L271.33 12.94L271.33 12.94Q271.33 12.17 270.77 11.76L270.77 11.76L270.77 11.76Q270.20 11.35 268.93 11.17L268.93 11.17L268.93 11.17Q268.18 11.07 267.59 10.87L267.59 10.87L267.59 10.87Q266.99 10.67 266.57 10.34L266.57 10.34L266.57 10.34Q266.15 10.01 265.93 9.55L265.93 9.55L265.93 9.55Q265.71 9.09 265.71 8.46L265.71 8.46L265.71 8.29L265.71 8.29Q265.71 7.71 265.94 7.24L265.94 7.24L265.94 7.24Q266.18 6.76 266.61 6.41L266.61 6.41L266.61 6.41Q267.04 6.06 267.63 5.87L267.63 5.87L267.63 5.87Q268.23 5.68 268.94 5.68L268.94 5.68L268.94 5.68Q269.77 5.68 270.42 5.92L270.42 5.92L270.42 5.92Q271.07 6.16 271.52 6.56L271.52 6.56L271.52 6.56Q271.96 6.96 272.20 7.50L272.20 7.50L272.20 7.50Q272.43 8.04 272.43 8.62L272.43 8.62L272.43 9.21L271.25 9.21ZM300.48 11.65L298.16 11.65L298.16 15.68L296.98 15.68L296.98 5.88L300.48 5.88L300.48 5.88Q301.24 5.88 301.80 6.10L301.80 6.10L301.80 6.10Q302.36 6.31 302.73 6.68L302.73 6.68L302.73 6.68Q303.10 7.04 303.29 7.53L303.29 7.53L303.29 7.53Q303.48 8.01 303.48 8.54L303.48 8.54L303.48 8.96L303.48 8.96Q303.48 9.49 303.29 9.98L303.29 9.98L303.29 9.98Q303.10 10.47 302.72 10.84L302.72 10.84L302.72 10.84Q302.34 11.21 301.78 11.43L301.78 11.43L301.78 11.43Q301.22 11.65 300.48 11.65L300.48 11.65ZM298.16 6.97L298.16 10.56L300.34 10.56L300.34 10.56Q302.30 10.56 302.30 8.88L302.30 8.88L302.30 8.62L302.30 8.62Q302.30 7.88 301.82 7.43L301.82 7.43L301.82 7.43Q301.34 6.97 300.34 6.97L300.34 6.97L298.16 6.97ZM318.71 12.15L318.71 15.68L317.53 15.68L317.53 12.40L317.53 12.40Q317.53 12.04 317.37 11.84L317.37 11.84L317.37 11.84Q317.20 11.65 316.78 11.65L316.78 11.65L313.73 11.65L313.73 15.68L312.55 15.68L312.55 5.88L316.05 5.88L316.05 5.88Q316.81 5.88 317.37 6.10L317.37 6.10L317.37 6.10Q317.93 6.31 318.30 6.68L318.30 6.68L318.30 6.68Q318.67 7.04 318.86 7.53L318.86 7.53L318.86 7.53Q319.05 8.01 319.05 8.54L319.05 8.54L319.05 8.96L319.05 8.96Q319.05 9.51 318.75 10.05L318.75 10.05L318.75 10.05Q318.44 10.60 317.81 10.89L317.81 10.89L317.81 11.06L317.81 11.06Q318.23 11.13 318.47 11.40L318.47 11.40L318.47 11.40Q318.71 11.66 318.71 12.15L318.71 12.15ZM313.73 6.97L313.73 10.56L315.91 10.56L315.91 10.56Q316.90 10.56 317.39 10.13L317.39 10.13L317.39 10.13Q317.87 9.70 317.87 8.88L317.87 8.88L317.87 8.62L317.87 8.62Q317.87 7.88 317.39 7.43L317.39 7.43L317.39 7.43Q316.90 6.97 315.91 6.97L315.91 6.97L313.73 6.97ZM328.24 15.68L328.24 5.88L334.18 5.88L334.18 6.97L329.42 6.97L329.42 10.22L334.10 10.22L334.10 11.31L329.42 11.31L329.42 14.59L334.26 14.59L334.26 15.68L328.24 15.68ZM346.84 14.78L346.84 14.78L346.84 14.78Q347.44 14.78 347.87 14.58L347.87 14.58L347.87 14.58Q348.29 14.38 348.56 14.04L348.56 14.04L348.56 14.04Q348.84 13.69 348.97 13.25L348.97 13.25L348.97 13.25Q349.10 12.81 349.10 12.32L349.10 12.32L349.10 12.15L350.28 12.15L350.28 12.32L350.28 12.32Q350.28 13.06 350.06 13.71L350.06 13.71L350.06 13.71Q349.83 14.36 349.40 14.85L349.40 14.85L349.40 14.85Q348.96 15.33 348.32 15.60L348.32 15.60L348.32 15.60Q347.68 15.88 346.84 15.88L346.84 15.88L346.84 15.88Q345.21 15.88 344.30 14.85L344.30 14.85L344.30 14.85Q343.39 13.83 343.39 11.87L343.39 11.87L343.39 9.69L343.39 9.69Q343.39 7.78 344.30 6.73L344.30 6.73L344.30 6.73Q345.21 5.68 346.84 5.68L346.84 5.68L346.84 5.68Q347.68 5.68 348.32 5.96L348.32 5.96L348.32 5.96Q348.96 6.23 349.40 6.71L349.40 6.71L349.40 6.71Q349.83 7.20 350.06 7.85L350.06 7.85L350.06 7.85Q350.28 8.50 350.28 9.24L350.28 9.24L350.28 9.41L349.10 9.41L349.10 9.24L349.10 9.24Q349.09 8.76 348.96 8.32L348.96 8.32L348.96 8.32Q348.82 7.87 348.55 7.53L348.55 7.53L348.55 7.53Q348.28 7.18 347.86 6.98L347.86 6.98L347.86 6.98Q347.44 6.78 346.84 6.78L346.84 6.78L346.84 6.78Q345.70 6.78 345.13 7.60L345.13 7.60L345.13 7.60Q344.57 8.43 344.57 9.77L344.57 9.77L344.57 11.79L344.57 11.79Q344.57 13.23 345.13 14.01L345.13 14.01L345.13 14.01Q345.70 14.78 346.84 14.78ZM359.24 6.97L359.24 5.88L365.46 5.88L365.46 6.97L362.94 6.97L362.94 14.59L365.46 14.59L365.46 15.68L359.24 15.68L359.24 14.59L361.76 14.59L361.76 6.97L359.24 6.97ZM374.47 11.87L374.47 9.69L374.47 9.69Q374.47 7.78 375.38 6.73L375.38 6.73L375.38 6.73Q376.29 5.68 377.92 5.68L377.92 5.68L377.92 5.68Q379.54 5.68 380.45 6.73L380.45 6.73L380.45 6.73Q381.36 7.78 381.36 9.69L381.36 9.69L381.36 11.87L381.36 11.87Q381.36 13.83 380.45 14.85L380.45 14.85L380.45 14.85Q379.54 15.88 377.92 15.88L377.92 15.88L377.92 15.88Q376.29 15.88 375.38 14.85L375.38 14.85L375.38 14.85Q374.47 13.83 374.47 11.87L374.47 11.87ZM377.92 14.78L377.92 14.78L377.92 14.78Q379.05 14.78 379.62 14.01L379.62 14.01L379.62 14.01Q380.18 13.23 380.18 11.79L380.18 11.79L380.18 9.77L380.18 9.77Q380.18 8.43 379.62 7.60L379.62 7.60L379.62 7.60Q379.05 6.78 377.92 6.78L377.92 6.78L377.92 6.78Q376.78 6.78 376.21 7.60L376.21 7.60L376.21 7.60Q375.65 8.43 375.65 9.77L375.65 9.77L375.65 11.79L375.65 11.79Q375.65 13.23 376.21 14.01L376.21 14.01L376.21 14.01Q376.78 14.78 377.92 14.78ZM395.79 9.21L395.79 8.71L395.79 8.71Q395.79 8.23 395.60 7.87L395.60 7.87L395.60 7.87Q395.42 7.50 395.09 7.27L395.09 7.27L395.09 7.27Q394.77 7.03 394.35 6.90L394.35 6.90L394.35 6.90Q393.93 6.78 393.47 6.78L393.47 6.78L393.47 6.78Q393.06 6.78 392.70 6.88L392.70 6.88L392.70 6.88Q392.34 6.99 392.05 7.18L392.05 7.18L392.05 7.18Q391.76 7.38 391.59 7.66L391.59 7.66L391.59 7.66Q391.43 7.95 391.43 8.33L391.43 8.33L391.43 8.41L391.43 8.41Q391.43 8.82 391.59 9.11L391.59 9.11L391.59 9.11Q391.76 9.39 392.09 9.60L392.09 9.60L392.09 9.60Q392.42 9.80 392.91 9.93L392.91 9.93L392.91 9.93Q393.40 10.07 394.06 10.16L394.06 10.16L394.06 10.16Q395.60 10.40 396.33 11.07L396.33 11.07L396.33 11.07Q397.05 11.73 397.05 12.85L397.05 12.85L397.05 13.02L397.05 13.02Q397.05 13.65 396.84 14.17L396.84 14.17L396.84 14.17Q396.62 14.70 396.19 15.08L396.19 15.08L396.19 15.08Q395.77 15.46 395.14 15.67L395.14 15.67L395.14 15.67Q394.51 15.88 393.68 15.88L393.68 15.88L393.68 15.88Q392.74 15.88 392.02 15.60L392.02 15.60L392.02 15.60Q391.30 15.33 390.82 14.85L390.82 14.85L390.82 14.85Q390.33 14.36 390.08 13.71L390.08 13.71L390.08 13.71Q389.83 13.06 389.83 12.29L389.83 12.29L389.83 11.87L391.01 11.87L391.01 12.21L391.01 12.21Q391.01 13.50 391.71 14.14L391.71 14.14L391.71 14.14Q392.42 14.78 393.68 14.78L393.68 14.78L393.68 14.78Q394.77 14.78 395.32 14.30L395.32 14.30L395.32 14.30Q395.88 13.82 395.88 13.02L395.88 13.02L395.88 12.94L395.88 12.94Q395.88 12.17 395.31 11.76L395.31 11.76L395.31 11.76Q394.74 11.35 393.47 11.17L393.47 11.17L393.47 11.17Q392.73 11.07 392.13 10.87L392.13 10.87L392.13 10.87Q391.54 10.67 391.12 10.34L391.12 10.34L391.12 10.34Q390.70 10.01 390.47 9.55L390.47 9.55L390.47 9.55Q390.25 9.09 390.25 8.46L390.25 8.46L390.25 8.29L390.25 8.29Q390.25 7.71 390.49 7.24L390.49 7.24L390.49 7.24Q390.73 6.76 391.15 6.41L391.15 6.41L391.15 6.41Q391.58 6.06 392.17 5.87L392.17 5.87L392.17 5.87Q392.77 5.68 393.48 5.68L393.48 5.68L393.48 5.68Q394.31 5.68 394.96 5.92L394.96 5.92L394.96 5.92Q395.61 6.16 396.06 6.56L396.06 6.56L396.06 6.56Q396.51 6.96 396.74 7.50L396.74 7.50L396.74 7.50Q396.97 8.04 396.97 8.62L396.97 8.62L396.97 9.21L395.79 9.21ZM411.87 15.68L411.15 13.24L406.95 13.24L406.24 15.68L404.98 15.68L407.95 5.88L410.16 5.88L413.13 15.68L411.87 15.68ZM409.14 6.38L408.97 6.38L407.27 12.15L410.83 12.15L409.14 6.38ZM426.93 9.21L426.93 8.71L426.93 8.71Q426.93 8.23 426.74 7.87L426.74 7.87L426.74 7.87Q426.55 7.50 426.23 7.27L426.23 7.27L426.23 7.27Q425.91 7.03 425.49 6.90L425.49 6.90L425.49 6.90Q425.07 6.78 424.61 6.78L424.61 6.78L424.61 6.78Q424.20 6.78 423.84 6.88L423.84 6.88L423.84 6.88Q423.47 6.99 423.18 7.18L423.18 7.18L423.18 7.18Q422.90 7.38 422.73 7.66L422.73 7.66L422.73 7.66Q422.56 7.95 422.56 8.33L422.56 8.33L422.56 8.41L422.56 8.41Q422.56 8.82 422.73 9.11L422.73 9.11L422.73 9.11Q422.90 9.39 423.23 9.60L423.23 9.60L423.23 9.60Q423.56 9.80 424.05 9.93L424.05 9.93L424.05 9.93Q424.54 10.07 425.19 10.16L425.19 10.16L425.19 10.16Q426.73 10.40 427.46 11.07L427.46 11.07L427.46 11.07Q428.19 11.73 428.19 12.85L428.19 12.85L428.19 13.02L428.19 13.02Q428.19 13.65 427.97 14.17L427.97 14.17L427.97 14.17Q427.76 14.70 427.33 15.08L427.33 15.08L427.33 15.08Q426.90 15.46 426.27 15.67L426.27 15.67L426.27 15.67Q425.64 15.88 424.82 15.88L424.82 15.88L424.82 15.88Q423.88 15.88 423.16 15.60L423.16 15.60L423.16 15.60Q422.44 15.33 421.95 14.85L421.95 14.85L421.95 14.85Q421.47 14.36 421.22 13.71L421.22 13.71L421.22 13.71Q420.97 13.06 420.97 12.29L420.97 12.29L420.97 11.87L422.14 11.87L422.14 12.21L422.14 12.21Q422.14 13.50 422.85 14.14L422.85 14.14L422.85 14.14Q423.56 14.78 424.82 14.78L424.82 14.78L424.82 14.78Q425.91 14.78 426.46 14.30L426.46 14.30L426.46 14.30Q427.01 13.82 427.01 13.02L427.01 13.02L427.01 12.94L427.01 12.94Q427.01 12.17 426.45 11.76L426.45 11.76L426.45 11.76Q425.88 11.35 424.61 11.17L424.61 11.17L424.61 11.17Q423.86 11.07 423.27 10.87L423.27 10.87L423.27 10.87Q422.67 10.67 422.25 10.34L422.25 10.34L422.25 10.34Q421.83 10.01 421.61 9.55L421.61 9.55L421.61 9.55Q421.39 9.09 421.39 8.46L421.39 8.46L421.39 8.29L421.39 8.29Q421.39 7.71 421.62 7.24L421.62 7.24L421.62 7.24Q421.86 6.76 422.29 6.41L422.29 6.41L422.29 6.41Q422.72 6.06 423.31 5.87L423.31 5.87L423.31 5.87Q423.91 5.68 424.62 5.68L424.62 5.68L424.62 5.68Q425.45 5.68 426.10 5.92L426.10 5.92L426.10 5.92Q426.75 6.16 427.20 6.56L427.20 6.56L427.20 6.56Q427.64 6.96 427.87 7.50L427.87 7.50L427.87 7.50Q428.11 8.04 428.11 8.62L428.11 8.62L428.11 9.21L426.93 9.21Z"></path></g></svg>