<svg id="Capa_1" enable-background="new 0 0 512 512" height="512" viewBox="0 0 512 512" width="512" xmlns="http://www.w3.org/2000/svg"><g><g><g><path d="m386.4 81.152c-48.899 0-94.039-16.087-130.421-43.256-36.382 27.169-81.522 43.256-130.421 43.256-16.084 0-31.756-1.756-46.849-5.059l15.501 210.018c4.243 57.498 35.52 109.57 84.285 140.326l77.484 48.869 77.769-48.751c49.146-30.808 80.631-83.226 84.743-141.084l14.882-209.406c-15.131 3.321-30.844 5.087-46.973 5.087z" fill="#ddeafb"/></g><g><path d="m386.4 81.152c-17.704 0-34.911-2.119-51.392-6.099l-8.59 120.867c-4.617 64.965-39.97 123.823-95.153 158.415l-80.579 50.512c8.477 8.004 17.765 15.256 27.808 21.59l77.484 48.869 77.769-48.751c49.146-30.808 80.631-83.227 84.743-141.084l14.882-209.406c-15.13 3.321-30.843 5.087-46.972 5.087z" fill="#cbe2ff"/></g><g><path d="m256.103 37.986c-.041-.031-.083-.06-.124-.091-36.382 27.169-81.522 43.256-130.421 43.256-16.084 0-31.756-1.756-46.849-5.059l15.501 210.019c4.243 57.498 35.52 109.57 84.285 140.326l77.484 48.869.124-.077z" fill="#ecf4ff"/></g><g><path d="m255.98 475.307.124-.077v-139.228c-7.747 6.677-16.037 12.817-24.838 18.333l-80.579 50.512c8.476 8.004 17.764 15.255 27.808 21.59z" fill="#ddeafb"/></g><g><g><path d="m264.146 509.644c-5.025 3.15-11.41 3.141-16.426-.023l-87.058-54.908c-57.484-36.255-94.79-98.364-99.791-166.143l-17.784-240.964c-.506-6.862 5.736-12.276 12.457-10.806l30.313 6.633c12.999 2.845 26.357 4.287 39.702 4.287 40.162 0 78.344-12.66 110.417-36.611l10.771-8.043c5.476-4.089 12.989-4.089 18.464 0l10.771 8.043c32.074 23.951 70.255 36.611 110.418 36.611 13.384 0 26.777-1.45 39.807-4.309l30.243-6.638c6.712-1.473 12.953 3.922 12.466 10.776l-17.077 240.29c-4.85 68.252-42.358 130.698-100.333 167.041zm-144.563-395.132c-2.425-.058-4.368 1.992-4.189 4.411l12.157 164.727c3.447 46.714 29.159 89.522 68.779 114.51l55.328 34.896c2.675 1.687 6.081 1.692 8.761.012l55.575-34.838c39.958-25.048 65.809-68.087 69.152-115.128l11.669-164.195c.172-2.416-1.77-4.46-4.192-4.4-2.074.051-4.148.077-6.222.077-45.116 0-88.412-11.743-126.729-34.179-2.285-1.338-5.097-1.338-7.382 0-38.317 22.436-81.613 34.179-126.729 34.179-1.994-.001-3.986-.025-5.978-.072z" fill="#5e54ac"/></g></g><g><g><path d="m456.45 36.774-16.382 3.596-16.388 230.595c-4.85 68.252-42.358 130.698-100.333 167.041l-94.878 59.475 19.25 12.141c5.016 3.164 11.401 3.173 16.426.023l87.36-54.762c57.975-36.343 95.483-98.789 100.333-167.041l17.077-240.29c.488-6.856-5.754-12.251-12.465-10.778z" fill="#524798"/></g></g></g><g><path d="m261.199 155.302 10.209 31.421c.732 2.252 2.831 3.777 5.199 3.777h33.038c5.296 0 7.497 6.777 3.213 9.889l-26.728 19.419c-1.916 1.392-2.718 3.859-1.986 6.112l10.209 31.421c1.636 5.036-4.128 9.225-8.412 6.112l-26.728-19.419c-1.916-1.392-4.51-1.392-6.426 0l-26.728 19.419c-4.284 3.113-10.049-1.075-8.412-6.112l10.209-31.421c.732-2.252-.07-4.72-1.986-6.112l-26.728-19.419c-4.284-3.113-2.082-9.889 3.213-9.889h33.038c2.368 0 4.467-1.525 5.199-3.777l10.209-31.421c1.636-5.037 8.762-5.037 10.398 0z" fill="#ffe07d"/></g><g><g><path d="m309.645 190.5h-9.103c-.144 1.419-.842 2.808-2.227 3.814l-26.728 19.419c-1.916 1.392-2.718 3.86-1.986 6.112l10.209 31.421c.838 2.578-.269 4.926-2.118 6.194l8.249 5.993c4.284 3.113 10.049-1.075 8.412-6.112l-10.209-31.421c-.732-2.252.07-4.72 1.986-6.112l26.728-19.419c4.285-3.112 2.083-9.889-3.213-9.889z" fill="#ffd064"/></g></g><g><path d="m138.533 238.263 7.071 21.761c.507 1.56 1.961 2.616 3.601 2.616h22.881c3.668 0 5.193 4.693 2.225 6.849l-18.511 13.45c-1.327.964-1.882 2.673-1.375 4.233l7.071 21.761c1.133 3.488-2.859 6.389-5.826 4.233l-18.511-13.449c-1.327-.964-3.124-.964-4.451 0l-18.511 13.449c-2.967 2.156-6.96-.745-5.826-4.233l7.071-21.761c.507-1.56-.048-3.269-1.375-4.233l-18.514-13.449c-2.967-2.156-1.442-6.849 2.225-6.849h22.881c1.64 0 3.094-1.056 3.601-2.616l7.071-21.761c1.134-3.489 6.068-3.489 7.202-.001z" fill="#ffe07d"/></g><g><path d="m373.467 238.263-7.071 21.761c-.507 1.56-1.961 2.616-3.601 2.616h-22.881c-3.668 0-5.193 4.693-2.225 6.849l18.511 13.449c1.327.964 1.882 2.673 1.375 4.233l-7.071 21.761c-1.133 3.488 2.859 6.389 5.826 4.233l18.511-13.449c1.327-.964 3.124-.964 4.451 0l18.511 13.449c2.967 2.156 6.96-.745 5.826-4.233l-7.071-21.761c-.507-1.56.048-3.269 1.375-4.233l18.511-13.449c2.967-2.156 1.442-6.849-2.225-6.849h-22.879c-1.64 0-3.094-1.056-3.601-2.616l-7.071-21.761c-1.133-3.488-6.067-3.488-7.201 0z" fill="#ffe07d"/></g><g><g><path d="m172.086 262.641h-9.73c-.024 1.084-.502 2.173-1.558 2.941l-18.511 13.449c-1.327.964-1.882 2.673-1.375 4.233l7.071 21.762c.294.906.238 1.77-.052 2.518l7.739 5.623c2.967 2.156 6.96-.745 5.826-4.233l-7.071-21.761c-.507-1.56.048-3.269 1.375-4.233l18.511-13.449c2.967-2.157 1.442-6.85-2.225-6.85z" fill="#ffd064"/></g></g><g><g><path d="m414.222 262.641h-9.73c-.024 1.084-.502 2.173-1.558 2.941l-18.511 13.449c-1.327.964-1.882 2.673-1.375 4.233l7.071 21.762c.294.906.238 1.77-.052 2.518l7.739 5.623c2.967 2.156 6.96-.745 5.826-4.233l-7.071-21.761c-.507-1.56.048-3.269 1.375-4.233l18.511-13.449c2.967-2.157 1.442-6.85-2.225-6.85z" fill="#ffd064"/></g></g><g><path d="m35.023 335.409 4.278 13.166c.307.944 1.186 1.583 2.179 1.583h13.844c2.219 0 3.142 2.84 1.346 4.144l-11.2 8.137c-.803.583-1.139 1.617-.832 2.561l4.278 13.166c.686 2.11-1.73 3.865-3.525 2.561l-11.2-8.137c-.803-.583-1.89-.583-2.693 0l-11.2 8.137c-1.795 1.304-4.211-.451-3.525-2.561l4.278-13.166c.307-.944-.029-1.978-.832-2.561l-11.2-8.137c-1.795-1.304-.873-4.144 1.346-4.144h13.844c.992 0 1.872-.639 2.179-1.583l4.278-13.166c.685-2.111 3.671-2.111 4.357 0z" fill="#ffe07d"/></g><g><path d="m476.977 335.409-4.278 13.166c-.307.944-1.186 1.583-2.179 1.583h-13.844c-2.219 0-3.142 2.84-1.346 4.144l11.2 8.137c.803.583 1.139 1.617.832 2.561l-4.278 13.166c-.686 2.11 1.73 3.865 3.525 2.561l11.2-8.137c.803-.583 1.89-.583 2.693 0l11.2 8.137c1.795 1.304 4.211-.451 3.525-2.561l-4.278-13.166c-.307-.944.029-1.978.832-2.561l11.2-8.137c1.795-1.304.873-4.144-1.346-4.144h-13.844c-.992 0-1.872-.639-2.179-1.583l-4.278-13.166c-.685-2.111-3.671-2.111-4.357 0z" fill="#ffe07d"/></g><g><g><path d="m55.323 350.158h-7.713c-.155.287-.375.553-.678.773l-11.2 8.137c-.803.583-1.139 1.617-.832 2.561l4.278 13.166c.165.508.147.993.005 1.422l6.207 4.51c1.795 1.304 4.211-.451 3.525-2.561l-4.278-13.166c-.307-.944.029-1.978.832-2.561l11.2-8.137c1.796-1.304.873-4.144-1.346-4.144z" fill="#ffd064"/></g></g><g><g><path d="m501.635 350.158h-7.713c-.155.287-.375.553-.678.773l-11.2 8.137c-.803.583-1.139 1.617-.832 2.561l4.278 13.166c.165.508.147.993.005 1.422l6.207 4.51c1.795 1.304 4.211-.451 3.525-2.561l-4.278-13.166c-.307-.944.029-1.978.832-2.561l11.2-8.137c1.796-1.304.873-4.144-1.346-4.144z" fill="#ffd064"/></g></g></g></svg>