<svg viewBox="0 0 200 200" xmlns="http://www.w3.org/2000/svg">
  <path fill="#E2E8F0" d="M26,-40.7C35.3,-39.8,45.3,-35.9,48.3,-28.6C51.3,-21.3,47.2,-10.6,48.4,0.7C49.6,12,56,24,54.6,34C53.2,44.1,43.9,52,33.5,55.2C23.1,58.4,11.6,56.7,-1.1,58.6C-13.7,60.5,-27.5,65.9,-40.6,64.3C-53.7,62.7,-66.1,54,-74,42.1C-81.8,30.2,-85.1,15.1,-83.1,1.2C-81.1,-12.8,-73.8,-25.6,-66.9,-39.2C-60,-52.7,-53.5,-67.1,-42.5,-67C-31.4,-66.9,-15.7,-52.2,-3.6,-45.9C8.4,-39.6,16.8,-41.7,26,-40.7Z" transform="translate(100 100)" />
</svg>