<svg viewBox="0 0 200 200" xmlns="http://www.w3.org/2000/svg">
  <path fill="#E2E8F0" d="M34.6,-65.4C44,-54.5,50.3,-43.6,56.5,-32.7C62.8,-21.8,69,-10.9,73.8,2.8C78.7,16.5,82.3,33,76,43.9C69.8,54.9,53.8,60.2,39.5,67.9C25.2,75.6,12.6,85.7,-1.9,89C-16.5,92.4,-33,89,-46.4,80.8C-59.8,72.6,-70.2,59.5,-75.9,45.3C-81.7,31,-82.8,15.5,-81.5,0.7C-80.2,-14,-76.5,-28,-68.4,-38.2C-60.3,-48.5,-47.9,-54.9,-35.7,-64.2C-23.6,-73.6,-11.8,-85.9,0.4,-86.6C12.6,-87.3,25.2,-76.4,34.6,-65.4Z" transform="translate(100 100)" />
</svg>