<svg viewBox="0 0 200 200" xmlns="http://www.w3.org/2000/svg">
  <path fill="#E2E8F0" d="M43.2,-74.6C56.6,-67.1,68.4,-56.7,76.7,-43.8C84.9,-30.9,89.7,-15.4,89.1,-0.3C88.6,14.8,82.7,29.6,75.2,43.9C67.7,58.1,58.6,71.9,45.8,81C33,90.1,16.5,94.6,0.8,93.2C-14.8,91.7,-29.6,84.3,-43.7,75.9C-57.9,67.6,-71.3,58.3,-79.6,45.4C-88,32.6,-91.2,16.3,-91,0.1C-90.8,-16.1,-87.2,-32.2,-78.8,-44.9C-70.5,-57.7,-57.3,-67.2,-43.4,-74.3C-29.5,-81.5,-14.7,-86.3,0.1,-86.5C14.9,-86.6,29.9,-82.1,43.2,-74.6Z" transform="translate(100 100)" />
</svg>