<svg xmlns="http://www.w3.org/2000/svg" viewBox="0 0 1440 320"><path fill="#1a202c" fill-opacity="1" d="M0,224L24,186.7C48,149,96,75,144,42.7C192,11,240,21,288,37.3C336,53,384,75,432,74.7C480,75,528,53,576,58.7C624,64,672,96,720,106.7C768,117,816,107,864,112C912,117,960,139,1008,160C1056,181,1104,203,1152,186.7C1200,171,1248,117,1296,101.3C1344,85,1392,107,1416,117.3L1440,128L1440,0L1416,0C1392,0,1344,0,1296,0C1248,0,1200,0,1152,0C1104,0,1056,0,1008,0C960,0,912,0,864,0C816,0,768,0,720,0C672,0,624,0,576,0C528,0,480,0,432,0C384,0,336,0,288,0C240,0,192,0,144,0C96,0,48,0,24,0L0,0Z"></path></svg>